<svg width="97" height="44" viewBox="0 0 97 44" fill="none" xmlns="http://www.w3.org/2000/svg">
<path d="M0.98 21.88C0.98 17.72 1.88 14.02 3.68 10.78C5.48 7.5 7.98 4.96 11.18 3.16C14.42 1.32 18.08 0.399998 22.16 0.399998C27.16 0.399998 31.44 1.72 35 4.36C38.56 7 40.94 10.6 42.14 15.16H30.86C30.02 13.4 28.82 12.06 27.26 11.14C25.74 10.22 24 9.76 22.04 9.76C18.88 9.76 16.32 10.86 14.36 13.06C12.4 15.26 11.42 18.2 11.42 21.88C11.42 25.56 12.4 28.5 14.36 30.7C16.32 32.9 18.88 34 22.04 34C24 34 25.74 33.54 27.26 32.62C28.82 31.7 30.02 30.36 30.86 28.6H42.14C40.94 33.16 38.56 36.76 35 39.4C31.44 42 27.16 43.3 22.16 43.3C18.08 43.3 14.42 42.4 11.18 40.6C7.98 38.76 5.48 36.22 3.68 32.98C1.88 29.74 0.98 26.04 0.98 21.88ZM96.1231 0.879999V43H85.8631V17.74L76.4431 43H68.1631L58.6831 17.68V43H48.4231V0.879999H60.5431L72.3631 30.04L84.0631 0.879999H96.1231Z" fill="#D21D00"/>
</svg>
