<svg width="23" height="22" viewBox="0 0 23 22" fill="none" xmlns="http://www.w3.org/2000/svg">
<path d="M19.7778 0H2.44122C1.81423 0 1.21292 0.24693 0.76957 0.686469C0.32622 1.12601 0.0771484 1.72215 0.0771484 2.34375L0.0771484 19.5312C0.0771484 20.1529 0.32622 20.749 0.76957 21.1885C1.21292 21.6281 1.81423 21.875 2.44122 21.875H9.201V14.438H6.09815V10.9375H9.201V8.26953C9.201 5.23486 11.0233 3.55859 13.8144 3.55859C15.1511 3.55859 16.5488 3.79492 16.5488 3.79492V6.77344H15.0087C13.4913 6.77344 13.018 7.70703 13.018 8.66455V10.9375H16.4055L15.8637 14.438H13.018V21.875H19.7778C20.4048 21.875 21.0061 21.6281 21.4494 21.1885C21.8928 20.749 22.1418 20.1529 22.1418 19.5312V2.34375C22.1418 1.72215 21.8928 1.12601 21.4494 0.686469C21.0061 0.24693 20.4048 0 19.7778 0Z" fill="black"/>
</svg>
