<svg width="51" height="68" viewBox="0 0 51 68" fill="none" xmlns="http://www.w3.org/2000/svg">
<path d="M22.8793 66.628C3.58195 38.6525 0 35.7814 0 25.5C0 11.4167 11.4167 0 25.5 0C39.5833 0 51 11.4167 51 25.5C51 35.7814 47.418 38.6525 28.1207 66.628C26.8543 68.4574 24.1456 68.4573 22.8793 66.628ZM25.5 36.125C31.3681 36.125 36.125 31.368 36.125 25.5C36.125 19.6319 31.3681 14.875 25.5 14.875C19.6319 14.875 14.875 19.6319 14.875 25.5C14.875 31.368 19.6319 36.125 25.5 36.125Z" fill="#D21D00"/>
</svg>
