<svg width="85" height="64" viewBox="0 0 85 64" fill="none" xmlns="http://www.w3.org/2000/svg">
<path d="M83.3896 21.1333C84.0371 20.6167 85 21.1 85 21.9167V56C85 60.4167 81.4307 64 77.0312 64H7.96875C3.56934 64 0 60.4167 0 56V21.9333C0 21.1 0.946289 20.6333 1.61035 21.15C5.3291 24.05 10.2598 27.7333 27.1934 40.0833C30.6963 42.65 36.6064 48.05 42.5 48.0167C48.4268 48.0667 54.4531 42.55 57.8232 40.0833C74.7568 27.7333 79.6709 24.0333 83.3896 21.1333ZM42.5 42.6667C46.3516 42.7333 51.8965 37.8 54.6855 35.7667C76.7158 19.7167 78.3926 18.3167 83.4727 14.3167C84.4355 13.5667 85 12.4 85 11.1667V8C85 3.58333 81.4307 0 77.0312 0H7.96875C3.56934 0 0 3.58333 0 8V11.1667C0 12.4 0.564453 13.55 1.52734 14.3167C6.60742 18.3 8.28418 19.7167 30.3145 35.7667C33.1035 37.8 38.6484 42.7333 42.5 42.6667Z" fill="#D21D00"/>
</svg>
