<svg width="23" height="22" viewBox="0 0 23 22" fill="none" xmlns="http://www.w3.org/2000/svg">
<path d="M18.9015 3.17871C16.8379 1.12793 14.0896 0 11.169 0C5.14063 0 0.23518 4.86328 0.23518 10.8398C0.23518 12.749 0.737545 14.6143 1.69303 16.2598L0.141602 21.875L5.93851 20.3662C7.53426 21.2305 9.33194 21.6846 11.1641 21.6846H11.169C17.1925 21.6846 22.2063 16.8213 22.2063 10.8447C22.2063 7.94922 20.9652 5.22949 18.9015 3.17871ZM11.169 19.8584C9.53387 19.8584 7.9332 19.4238 6.53938 18.6035L6.20939 18.4082L2.77163 19.3018L3.68771 15.9766L3.47101 15.6348C2.55985 14.1992 2.08211 12.5439 2.08211 10.8398C2.08211 5.87402 6.16014 1.83105 11.174 1.83105C13.6021 1.83105 15.8824 2.76855 17.5964 4.47266C19.3103 6.17676 20.3643 8.4375 20.3594 10.8447C20.3594 15.8154 16.1779 19.8584 11.169 19.8584ZM16.1533 13.1104C15.8824 12.9736 14.5378 12.3193 14.2866 12.2314C14.0355 12.1387 13.8532 12.0947 13.671 12.3682C13.4888 12.6416 12.9667 13.2471 12.8042 13.4326C12.6466 13.6133 12.484 13.6377 12.2132 13.501C10.6076 12.7051 9.55357 12.0801 8.49467 10.2783C8.21393 9.7998 8.7754 9.83398 9.29747 8.79883C9.38612 8.61816 9.34179 8.46191 9.27284 8.3252C9.20389 8.18848 8.6572 6.85547 8.43064 6.31348C8.20901 5.78613 7.98245 5.85938 7.81499 5.84961C7.65739 5.83984 7.47516 5.83984 7.29293 5.83984C7.1107 5.83984 6.81519 5.9082 6.564 6.17676C6.31282 6.4502 5.60852 7.10449 5.60852 8.4375C5.60852 9.77051 6.58863 11.0596 6.72161 11.2402C6.85951 11.4209 8.64734 14.1553 11.3907 15.332C13.1243 16.0742 13.804 16.1377 14.6708 16.0107C15.1978 15.9326 16.2863 15.3564 16.5128 14.7217C16.7394 14.0869 16.7394 13.5449 16.6704 13.4326C16.6064 13.3105 16.4242 13.2422 16.1533 13.1104Z" fill="black"/>
</svg>
