<svg width="136" height="62" viewBox="0 0 136 62" fill="none" xmlns="http://www.w3.org/2000/svg">
<path d="M0.805 31.08C0.805 25.1867 2.08 19.945 4.63 15.355C7.18 10.7083 10.7217 7.11 15.255 4.56C19.845 1.95333 25.03 0.649997 30.81 0.649997C37.8933 0.649997 43.9567 2.52 49 6.26C54.0433 10 57.415 15.1 59.115 21.56H43.135C41.945 19.0667 40.245 17.1683 38.035 15.865C35.8817 14.5617 33.4167 13.91 30.64 13.91C26.1633 13.91 22.5367 15.4683 19.76 18.585C16.9833 21.7017 15.595 25.8667 15.595 31.08C15.595 36.2933 16.9833 40.4583 19.76 43.575C22.5367 46.6917 26.1633 48.25 30.64 48.25C33.4167 48.25 35.8817 47.5983 38.035 46.295C40.245 44.9917 41.945 43.0933 43.135 40.6H59.115C57.415 47.06 54.0433 52.16 49 55.9C43.9567 59.5833 37.8933 61.425 30.81 61.425C25.03 61.425 19.845 60.15 15.255 57.6C10.7217 54.9933 7.18 51.395 4.63 46.805C2.08 42.215 0.805 36.9733 0.805 31.08ZM135.591 1.33V61H121.056V25.215L107.711 61H95.9811L82.5511 25.13V61H68.0161V1.33H85.1861L101.931 42.64L118.506 1.33H135.591Z" fill="white"/>
</svg>
